<svg id="Layer_1" data-name="Layer 1" xmlns="http://www.w3.org/2000/svg" viewBox="0 0 1866.46 530.31"><defs><style>.cls-1{fill:#231f20;}.cls-2{fill:none;stroke:#231f20;stroke-miterlimit:10;stroke-width:20px;}</style></defs><title>secondgenclear</title><path class="cls-1" d="M220.76,583.55q0-8.89-8.8-14t-28.26-9.14Q119,546.82,119,505.4q0-24.15,20-40.33t52.41-16.18q34.54,0,55.26,16.27t20.71,42.26H218.91q0-10.4-6.71-17.19t-21-6.79q-12.24,0-18.95,5.53a17.47,17.47,0,0,0-6.71,14.09q0,8,7.63,13T199,524.6a210.52,210.52,0,0,1,30.52,8.13q38.4,14.09,38.4,48.8,0,24.82-21.3,40.16t-55,15.34q-22.81,0-40.5-8.13t-27.75-22.3A51.82,51.82,0,0,1,113.26,576h45.95q.67,12.92,9.56,19.79t23.81,6.88q13.92,0,21-5.28A16.44,16.44,0,0,0,220.76,583.55Z" transform="translate(-26.77 -274.84)"/><path class="cls-1" d="M382.58,637q-39.91,0-65-24.48t-25.07-65.23v-4.7q0-27.33,10.56-48.88T333,460.54q19.37-11.65,44.19-11.66,37.23,0,58.61,23.48t21.38,66.58v19.79H341.67q2.35,17.78,14.17,28.51T385.77,598q28,0,43.77-20.29l23.81,26.66q-10.9,15.43-29.51,24.06T382.58,637ZM377,488q-14.42,0-23.39,9.77t-11.49,28h67.41v-3.87q-.34-16.17-8.72-25T377,488Z" transform="translate(-26.77 -274.84)"/><path class="cls-1" d="M560.17,598q13.41,0,21.8-7.38T590.69,571h45.45a62.18,62.18,0,0,1-10.06,33.79A66.4,66.4,0,0,1,599,628.57,84.8,84.8,0,0,1,561,637q-38.91,0-61.38-24.74T477.16,544v-3.19q0-41.92,22.3-66.91t61.21-25q34,0,54.59,19.37t20.88,51.57H590.69q-.34-14.16-8.72-23T559.84,488q-16.94,0-25.57,12.34t-8.64,40.06v5q0,28.05,8.55,40.31T560.17,598Z" transform="translate(-26.77 -274.84)"/><path class="cls-1" d="M656.26,541.29q0-27,10.4-48.13a76.1,76.1,0,0,1,29.93-32.7q19.53-11.57,45.36-11.57,36.73,0,60,22.47t25.91,61l.34,12.41q0,41.76-23.31,67T742.29,637q-39.24,0-62.63-25.16t-23.39-68.42Zm48.46,3.44q0,25.86,9.73,39.55T742.29,598q17.61,0,27.5-13.52t9.89-43.25q0-25.36-9.89-39.3T742,488q-17.78,0-27.5,13.86T704.73,544.73Z" transform="translate(-26.77 -274.84)"/><path class="cls-1" d="M902.61,452.24l1.51,21q19.45-24.31,52.15-24.32,28.84,0,42.93,16.94t14.42,50.64V633.69H965.16V517.38q0-15.46-6.71-22.44t-22.3-7q-20.46,0-30.69,17.48V633.69H857V452.24Z" transform="translate(-26.77 -274.84)"/><path class="cls-1" d="M1042.81,541.62q0-42.42,19-67.58t52.07-25.15q26.49,0,43.77,19.79V376.11h48.63V633.69h-43.77l-2.35-19.29Q1142.08,637,1113.57,637q-32,0-51.4-25.24T1042.81,541.62Zm48.46,3.45q0,25.61,8.89,39.25T1126,598q22.47,0,31.69-19V507q-9.06-19-31.36-19Q1091.27,488,1091.27,545.07Z" transform="translate(-26.77 -274.84)"/><path class="cls-1" d="M1236.83,541.62q0-41.76,19.87-67.25t53.58-25.49q29.85,0,46.45,20.46l2-17.1h43.94V627.65q0,23.81-10.82,41.42a69.48,69.48,0,0,1-30.44,26.83q-19.62,9.22-45.95,9.22a99.52,99.52,0,0,1-38.91-8q-19-8-28.68-20.54l21.47-29.51q18.11,20.29,43.94,20.29,19.28,0,30-10.31t10.73-29.26v-9.73q-16.77,19-44.1,19-32.7,0-52.91-25.57t-20.21-67.83Zm48.46,3.45q0,24.77,9.89,38.83T1322.36,598q22.14,0,31.69-16.68V504.64Q1344.32,488,1322.69,488q-17.44,0-27.42,14.32T1285.29,545.07Z" transform="translate(-26.77 -274.84)"/><path class="cls-1" d="M1523.43,637q-39.91,0-65-24.48t-25.07-65.23v-4.7q0-27.33,10.56-48.88t29.93-33.2q19.37-11.65,44.19-11.66,37.23,0,58.61,23.48t21.38,66.58v19.79H1482.51q2.35,17.78,14.17,28.51T1526.61,598q28,0,43.77-20.29l23.81,26.66q-10.9,15.43-29.51,24.06T1523.43,637ZM1517.89,488q-14.42,0-23.39,9.77t-11.49,28h67.41v-3.87q-.34-16.17-8.72-25T1517.89,488Z" transform="translate(-26.77 -274.84)"/><path class="cls-1" d="M1670.16,452.24l1.51,21q19.45-24.31,52.15-24.32,28.84,0,42.93,16.94t14.42,50.64V633.69h-48.46V517.38q0-15.46-6.71-22.44t-22.3-7q-20.46,0-30.69,17.48V633.69h-48.46V452.24Z" transform="translate(-26.77 -274.84)"/><polygon class="cls-2" points="1856.46 10 1856.46 384.09 1692.31 520.31 10 520.31 10 10 1856.46 10"/></svg>