<svg id="Layer_1" data-name="Layer 1" xmlns="http://www.w3.org/2000/svg" viewBox="0 0 1094.97 663.74"><defs><style>.cls-1{fill:#231f20;}.cls-2,.cls-3{fill:none;}.cls-2{stroke:#fff;stroke-miterlimit:10;stroke-width:6px;}</style></defs><title>SG</title><polygon class="cls-1" points="543.78 0 543.78 442.64 442.63 543.78 0 543.78 0 99.95 99.96 0 543.78 0"/><line class="cls-2" x1="543.78" y1="183.25" x2="271.89" y2="183.25"/><line class="cls-2" x1="271.89" y1="354.59" y2="354.59"/><line class="cls-3" x1="99.96" y2="99.95"/><line class="cls-3" x1="543.78" y1="442.64" x2="442.63" y2="543.78"/><polygon class="cls-1" points="1087.56 0 1087.56 442.64 987.95 542.24 986.41 543.78 543.78 543.78 543.78 99.95 643.74 0 1087.56 0"/><line class="cls-2" x1="1087.56" y1="183.25" x2="764.21" y2="184.73"/><line class="cls-2" x1="771.19" y1="354.59" x2="766.86" y2="183.25"/><line class="cls-2" x1="930.7" y1="352.22" x2="769.03" y2="352.96"/><rect class="cls-1" x="469.13" width="179.97" height="99.95"/><rect class="cls-1" x="433.13" y="442.64" width="158.12" height="101.14"/><line class="cls-2" x1="543.78" x2="543.78" y2="543.78"/><path class="cls-1" d="M360.22,861.42h47.11v2H358.22V775.85h2Z" transform="translate(-352.33 -200.53)"/><path class="cls-1" d="M417.23,861.54h46.61v1.88H415.22V775.85h48.36v1.88H417.23v40.84h45.35v2H417.23Z" transform="translate(-352.33 -200.53)"/><path class="cls-1" d="M524.6,834H480.25l-11.9,29.44h-2.13l35.21-89h2.13l35.21,89h-2.13Zm-43.48-1.88h42.72l-21.42-55Z" transform="translate(-352.33 -200.53)"/><path class="cls-1" d="M547.15,863.42h-1.88v-87.7h30.32c35.08,0,35.08,51.24,0,51.24H561.43l40.34,36.46H598.9L558.55,827v-1.88h17c32.58,0,32.58-47.36,0-47.36H547.15Z" transform="translate(-352.33 -200.53)"/><path class="cls-1" d="M611.55,863.42V775.6l1.75.13,58.26,84.2v-84.2h1.88v87.7h-2l-57.88-83.69v83.69Z" transform="translate(-352.33 -200.53)"/><path class="cls-1" d="M694.71,860.47a3.76,3.76,0,0,1-3.94,3.55,3.75,3.75,0,0,1,0-7.49A3.73,3.73,0,0,1,694.71,860.47Z" transform="translate(-352.33 -200.53)"/><path class="cls-1" d="M781.73,804.53a40.17,40.17,0,0,0-8-11.88,38.93,38.93,0,0,0-56,0,41,41,0,0,0-11.63,28.48,40.51,40.51,0,0,0,11.63,28.48,38.66,38.66,0,0,0,56,0,39.57,39.57,0,0,0,8-11.75h2.06a42.5,42.5,0,0,1-8.73,13.21,40.69,40.69,0,0,1-58.65,0,42.88,42.88,0,0,1,0-59.74,40.69,40.69,0,0,1,58.65,0,42.52,42.52,0,0,1,8.73,13.21Z" transform="translate(-352.33 -200.53)"/><path class="cls-1" d="M794.58,863.42h-1.82V778.59h29.33c33.93,0,33.93,49.57,0,49.57H808.39l39,35.26h-2.79l-39-35.26v-1.82h16.48c31.51,0,31.51-45.81,0-45.81H794.58Z" transform="translate(-352.33 -200.53)"/><path class="cls-1" d="M858.81,861.61h45.08v1.82h-47V778.71h46.78v1.82H858.81V820h43.87V822H858.81Z" transform="translate(-352.33 -200.53)"/><path class="cls-1" d="M962.67,834.95h-42.9l-11.51,28.48H906.2l34.05-86h2.06l34.05,86H974.3Zm-42.05-1.82h41.32l-20.72-53.2Z" transform="translate(-352.33 -200.53)"/><path class="cls-1" d="M994.66,863.42V780.53H965.34v-1.94h60.47v1.94H996.48v82.89Z" transform="translate(-352.33 -200.53)"/><path class="cls-1" d="M1035,861.61h45.08v1.82h-47V778.71h46.78v1.82H1035V820h43.87V822H1035Z" transform="translate(-352.33 -200.53)"/><path class="cls-1" d="M1098.64,860.47a3.76,3.76,0,0,1-3.94,3.55,3.75,3.75,0,0,1,0-7.49A3.73,3.73,0,0,1,1098.64,860.47Z" transform="translate(-352.33 -200.53)"/><path class="cls-1" d="M1163.6,796.41a19,19,0,0,0-4.6-9.21c-5.21-5.57-13.57-7.88-21.21-7.76-8,.12-17.09,3-22.18,9.7a17.88,17.88,0,0,0-3.76,13c2.18,29.69,49.81,6.42,55.62,33.57,3.88,17.93-13.21,28.6-29.33,28.6-12.36,0-27.39-7-28.84-20.72l-.12-.85,1.94-.24.12.85c1.33,12.72,15.51,19.15,27,19.15,14.78,0,30.78-9.57,27.27-26.42-5.45-25.21-53.32-2.18-55.5-33.81a19.94,19.94,0,0,1,4-14.18c12.36-16,47.26-13.94,51.38,8l.12,1-1.82.36Z" transform="translate(-352.33 -200.53)"/><path class="cls-1" d="M1179,819.55h53.2V778.71h1.94v84.71h-1.94V821.37H1179v42.05h-1.82V778.71H1179Z" transform="translate(-352.33 -200.53)"/><path class="cls-1" d="M1296.67,834.95h-42.9l-11.51,28.48h-2.06l34.05-86h2.06l34.05,86h-2.06Zm-42.05-1.82h41.32l-20.72-53.2Z" transform="translate(-352.33 -200.53)"/><path class="cls-1" d="M1318.48,863.42h-1.82V778.59H1346c33.93,0,33.93,49.57,0,49.57H1332.3l39,35.26h-2.79l-39-35.26v-1.82H1346c31.51,0,31.51-45.81,0-45.81h-27.51Z" transform="translate(-352.33 -200.53)"/><path class="cls-1" d="M1383.68,861.61h45.08v1.82h-47V778.71h46.78v1.82h-44.84V820h43.87V822h-43.87Z" transform="translate(-352.33 -200.53)"/><path class="cls-1" d="M1447.3,860.47a3.76,3.76,0,0,1-3.94,3.55,3.75,3.75,0,0,1,0-7.49A3.73,3.73,0,0,1,1447.3,860.47Z" transform="translate(-352.33 -200.53)"/></svg>