<svg id="Layer_1" data-name="Layer 1" xmlns="http://www.w3.org/2000/svg" viewBox="0 0 1101.28 768.18"><defs><style>.cls-1,.cls-4{fill:#231f20;}.cls-2,.cls-3{fill:none;}.cls-2{stroke:#fff;stroke-miterlimit:10;stroke-width:6px;}.cls-4{font-size:125.29px;font-family:Code-Light, Code Light;}.cls-5{letter-spacing:-0.01em;}.cls-10,.cls-13,.cls-6{font-size:197.21px;}.cls-6{letter-spacing:0em;}.cls-11,.cls-12,.cls-7,.cls-8,.cls-9{font-size:121.19px;}.cls-8{letter-spacing:-0.01em;}.cls-9{letter-spacing:-0.1em;}.cls-10{letter-spacing:0em;}.cls-11{letter-spacing:0em;}.cls-12{letter-spacing:0.01em;}</style></defs><title>SG</title><polygon class="cls-1" points="543.78 0 543.78 442.64 442.63 543.78 0 543.78 0 99.95 99.96 0 543.78 0"/><line class="cls-2" x1="543.78" y1="183.25" x2="271.89" y2="183.25"/><line class="cls-2" x1="271.89" y1="354.59" y2="354.59"/><line class="cls-3" x1="99.96" y2="99.95"/><line class="cls-3" x1="543.78" y1="442.64" x2="442.63" y2="543.78"/><polygon class="cls-1" points="1087.56 0 1087.56 442.64 987.95 542.24 986.41 543.78 543.78 543.78 543.78 99.95 643.74 0 1087.56 0"/><line class="cls-2" x1="1087.56" y1="183.25" x2="764.21" y2="184.73"/><line class="cls-2" x1="771.19" y1="354.59" x2="766.86" y2="183.25"/><line class="cls-2" x1="930.7" y1="352.22" x2="769.03" y2="352.96"/><rect class="cls-1" x="469.13" width="179.97" height="99.95"/><rect class="cls-1" x="433.13" y="442.64" width="158.12" height="101.14"/><line class="cls-2" x1="543.78" x2="543.78" y2="543.78"/><text class="cls-4" transform="translate(0 662.89)">L<tspan class="cls-5" x="57" y="0">e</tspan><tspan x="113.39" y="0">arn</tspan><tspan class="cls-6" x="327" y="0">.</tspan><tspan class="cls-7" x="348.69" y="0">Cr</tspan><tspan class="cls-8" x="498.84" y="0">e</tspan><tspan class="cls-9" x="553.38" y="0">a</tspan><tspan class="cls-7" x="611.92" y="0">te</tspan><tspan class="cls-10" x="730.93" y="0">.</tspan><tspan class="cls-11" x="752.62" y="0">SHA</tspan><tspan class="cls-12" x="958.64" y="0">R</tspan><tspan class="cls-7" x="1023.72" y="0">E</tspan><tspan class="cls-13" x="1079.59" y="0">.</tspan></text><text x="-352.33" y="-200.53"></text><text x="-352.33" y="-200.53"></text></svg>